<svg width="52" height="51" viewBox="0 0 52 51" fill="none" xmlns="http://www.w3.org/2000/svg">
<path d="M48.4669 22.1297H11.6616L27.7413 6.05005C29.0263 4.765 29.0263 2.65619 27.7413 1.37114C27.4365 1.06568 27.0744 0.823338 26.6758 0.657989C26.2771 0.492641 25.8498 0.407532 25.4183 0.407532C24.9868 0.407532 24.5595 0.492641 24.1608 0.657989C23.7622 0.823338 23.4002 1.06568 23.0953 1.37114L1.38121 23.0852C1.07575 23.3901 0.83341 23.7522 0.668062 24.1508C0.502713 24.5494 0.417603 24.9767 0.417603 25.4082C0.417603 25.8398 0.502713 26.2671 0.668062 26.6657C0.83341 27.0643 1.07575 27.4264 1.38121 27.7312L23.0953 49.4453C23.4004 49.7504 23.7625 49.9924 24.1611 50.1575C24.5597 50.3226 24.9869 50.4075 25.4183 50.4075C25.8497 50.4075 26.2769 50.3226 26.6755 50.1575C27.0741 49.9924 27.4362 49.7504 27.7413 49.4453C28.0463 49.1403 28.2883 48.7781 28.4534 48.3795C28.6185 47.981 28.7035 47.5538 28.7035 47.1223C28.7035 46.6909 28.6185 46.2637 28.4534 45.8652C28.2883 45.4666 28.0463 45.1044 27.7413 44.7994L11.6616 28.7197H48.4669C50.2791 28.7197 51.7619 27.237 51.7619 25.4247C51.7619 23.6125 50.2791 22.1297 48.4669 22.1297Z" fill="white"/>
</svg>
