<svg width="75" height="75" viewBox="0 0 75 75" fill="none" xmlns="http://www.w3.org/2000/svg">
<path d="M44.5711 7.07107C40.6658 3.16583 34.3342 3.16582 30.4289 7.07107L7.07108 30.4289C3.16583 34.3342 3.16582 40.6658 7.07107 44.5711L30.4289 67.9289C34.3342 71.8342 40.6658 71.8342 44.5711 67.9289L67.9289 44.5711C71.8342 40.6658 71.8342 34.3342 67.9289 30.4289L44.5711 7.07107Z" fill="#D16400"/>
<path fill-rule="evenodd" clip-rule="evenodd" d="M40.225 20.0226C39.9817 19.9845 39.7333 19.9947 39.494 20.0526C39.2547 20.1105 39.0291 20.215 38.8301 20.3601C38.6312 20.5052 38.4628 20.688 38.3345 20.8982C38.2062 21.1084 38.1206 21.3418 38.0825 21.5851C38.0444 21.8283 38.0546 22.0767 38.1125 22.3161C38.1704 22.5554 38.2749 22.781 38.42 22.9799C38.5651 23.1789 38.748 23.3473 38.9582 23.4756C39.1683 23.6039 39.4017 23.6895 39.645 23.7276C43.0556 24.2768 46.1347 26.0892 48.2703 28.8047C50.4058 31.5201 51.4413 34.9397 51.1711 38.3837C50.9008 41.8277 49.3446 45.0439 46.8116 47.393C44.2787 49.7421 40.9546 51.0521 37.5 51.0626C34.743 51.0631 32.0495 50.235 29.7688 48.6859C27.4882 47.1368 25.7257 44.9381 24.71 42.3751C24.6247 42.139 24.4929 41.9225 24.3223 41.7383C24.1518 41.5541 23.946 41.4061 23.7171 41.3029C23.4883 41.1998 23.2411 41.1436 22.9902 41.1378C22.7392 41.132 22.4897 41.1766 22.2563 41.269C22.0229 41.3614 21.8105 41.4998 21.6316 41.6758C21.4526 41.8518 21.3109 42.062 21.2147 42.2939C21.1185 42.5257 21.0699 42.7745 21.0717 43.0255C21.0734 43.2765 21.1256 43.5246 21.225 43.7551C22.7269 47.5386 25.5005 50.6805 29.0686 52.64C32.6367 54.5996 36.7762 55.2543 40.7749 54.4916C44.7736 53.7288 48.3814 51.5963 50.9777 48.4609C53.5739 45.3255 54.9963 41.3833 55 37.3126C54.9998 33.1432 53.5115 29.1109 50.8029 25.9412C48.0943 22.7716 44.3433 20.6728 40.225 20.0226ZM35.41 21.4651C35.4716 21.7037 35.4856 21.9522 35.4511 22.1963C35.4165 22.4404 35.3342 22.6753 35.2088 22.8875C35.0834 23.0997 34.9174 23.2852 34.7203 23.4332C34.5232 23.5812 34.2988 23.6889 34.06 23.7501C33.4337 23.9112 32.8196 24.1167 32.2225 24.3651C31.9951 24.4596 31.7514 24.5085 31.5052 24.5088C31.2589 24.5092 31.0151 24.461 30.7874 24.3671C30.5598 24.2732 30.3529 24.1354 30.1786 23.9615C30.0042 23.7877 29.8658 23.5812 29.7712 23.3538C29.6767 23.1265 29.6279 22.8827 29.6275 22.6365C29.6272 22.3903 29.6753 22.1464 29.7692 21.9187C29.8631 21.6911 30.0009 21.4842 30.1748 21.3099C30.3486 21.1355 30.5551 20.9971 30.7825 20.9026C31.5375 20.5876 32.32 20.3251 33.1275 20.1176C33.366 20.0563 33.6143 20.0426 33.8581 20.0773C34.1018 20.112 34.3364 20.1944 34.5484 20.3198C34.7603 20.4452 34.9455 20.611 35.0934 20.808C35.2412 21.0049 35.3488 21.2265 35.41 21.4651ZM27.9625 24.5476C28.3084 24.9044 28.4984 25.3839 28.4909 25.8808C28.4834 26.3777 28.279 26.8513 27.9225 27.1976C26.9929 28.1036 26.1936 29.1342 25.5475 30.2601C25.4287 30.48 25.267 30.6739 25.0722 30.8304C24.8773 30.9869 24.6531 31.1029 24.4127 31.1716C24.1723 31.2402 23.9207 31.26 23.6725 31.23C23.4244 31.1999 23.1848 31.1206 22.9677 30.9965C22.7507 30.8725 22.5607 30.7064 22.4088 30.5078C22.2569 30.3093 22.1463 30.0824 22.0833 29.8405C22.0204 29.5986 22.0065 29.3465 22.0424 29.0992C22.0784 28.8518 22.1634 28.6141 22.2925 28.4001C23.1113 26.9671 24.1279 25.6567 25.3125 24.5076C25.6693 24.1617 26.1489 23.9716 26.6458 23.9791C27.1427 23.9866 27.6163 24.1911 27.9625 24.5476ZM22.29 33.0126C22.7823 33.082 23.2268 33.344 23.5259 33.7411C23.825 34.1382 23.9542 34.6378 23.885 35.1301C23.7948 35.7719 23.7497 36.4194 23.75 37.0676C23.75 37.5648 23.5525 38.0418 23.2008 38.3934C22.8492 38.745 22.3723 38.9426 21.875 38.9426C21.3777 38.9426 20.9008 38.745 20.5492 38.3934C20.1975 38.0418 20 37.5648 20 37.0676C20 36.2351 20.0575 35.4126 20.1725 34.6076C20.2419 34.1153 20.5039 33.6708 20.901 33.3717C21.2981 33.0726 21.7977 32.9434 22.29 33.0126ZM31.25 42.0176V32.6076C31.2502 32.1816 31.3593 31.7627 31.5669 31.3907C31.7744 31.0188 32.0736 30.706 32.436 30.4821C32.7984 30.2582 33.212 30.1306 33.6375 30.1114C34.0631 30.0923 34.4864 30.1821 34.8675 30.3726L44.2775 35.0776C44.6922 35.2854 45.0409 35.6045 45.2846 35.9992C45.5283 36.394 45.6573 36.8487 45.6573 37.3126C45.6573 37.7764 45.5283 38.2312 45.2846 38.6259C45.0409 39.0206 44.6922 39.3397 44.2775 39.5476L34.8675 44.2526C34.4864 44.443 34.0631 44.5329 33.6375 44.5137C33.212 44.4945 32.7984 44.3669 32.436 44.143C32.0736 43.9192 31.7744 43.6064 31.5669 43.2344C31.3593 42.8624 31.2502 42.4435 31.25 42.0176Z" fill="white"/>
</svg>
