<svg width="32" height="32" viewBox="0 0 32 32" fill="none" xmlns="http://www.w3.org/2000/svg">
<path d="M31.3258 28.0929C31.755 28.5222 31.9962 29.1043 31.9962 29.7113C31.9962 30.3183 31.755 30.9004 31.3258 31.3297C30.8966 31.7589 30.3144 32 29.7074 32C29.1003 32 28.5181 31.7589 28.0889 31.3297L16 19.2377L3.90729 31.3258C3.47805 31.7551 2.89588 31.9962 2.28884 31.9962C1.6818 31.9962 1.09963 31.7551 0.670386 31.3258C0.241145 30.8966 6.39618e-09 30.3145 0 29.7075C-6.39618e-09 29.1005 0.241145 28.5183 0.670386 28.0891L12.7631 16.001L0.674193 3.90896C0.244953 3.47975 0.00380821 2.89761 0.00380821 2.29061C0.00380822 1.68361 0.244953 1.10146 0.674193 0.67225C1.10343 0.243034 1.68561 0.00190364 2.29265 0.00190363C2.89969 0.00190362 3.48186 0.243034 3.9111 0.67225L16 12.7642L28.0927 0.670345C28.5219 0.24113 29.1041 -1.01127e-08 29.7112 0C30.3182 1.01127e-08 30.9004 0.24113 31.3296 0.670345C31.7589 1.09956 32 1.6817 32 2.2887C32 2.8957 31.7589 3.47785 31.3296 3.90706L19.2369 16.001L31.3258 28.0929Z" fill="white"/>
</svg>
